<?xml version="1.0" encoding="utf-8"?>
<!-- Generator: Adobe Illustrator 16.2.0, SVG Export Plug-In . SVG Version: 6.00 Build 0)  -->
<!DOCTYPE svg PUBLIC "-//W3C//DTD SVG 1.1//EN" "http://www.w3.org/Graphics/SVG/1.1/DTD/svg11.dtd">
<svg version="1.1" id="Layer_1" xmlns="http://www.w3.org/2000/svg" xmlns:xlink="http://www.w3.org/1999/xlink" x="0px" y="0px"
	 width="186.6px" height="49.8px" viewBox="0 0 186.6 49.8" enable-background="new 0 0 186.6 49.8" xml:space="preserve">
<g>
	<path d="M14.3,29.9V0.4h5.6l4.2,21.6l3.9-21.6h5.6v29.5h-4v-11l0.2-10.1l-4,21h-3.6l-4.1-21l0.2,10.1v11H14.3z"/>
	<path d="M49.3,28.1c-1,1.4-2.7,2.1-4.9,2.1s-3.9-0.7-5-2.1c-1.1-1.4-1.6-3.6-1.6-6.5V8.1C37.8,2.7,40,0,44.4,0
		c2.3,0,3.9,0.7,4.9,2.1c1,1.4,1.5,3.4,1.5,6.1v13.5C50.8,24.5,50.3,26.7,49.3,28.1z M42.7,25.3c0.3,0.7,0.8,1,1.6,1
		c0.8,0,1.4-0.4,1.6-1c0.3-0.7,0.4-1.9,0.4-3.6V7.9c0-1.4-0.1-2.4-0.4-3.1c-0.3-0.6-0.8-1-1.5-1c-0.8,0-1.3,0.3-1.6,1
		c-0.3,0.6-0.5,1.7-0.5,3v13.8C42.3,23.4,42.4,24.6,42.7,25.3z"/>
	<path d="M58.2,29.9L53.6,0.4h4.3l1.9,13.3l1.2,9.4h0.1l1-9.4l1.6-13.3H68l-4.2,29.5H58.2z"/>
	<path d="M71.3,29.9V0.4h4.5v29.5H71.3z"/>
	<path d="M80.4,29.9V0.4h9.9v3.9h-5.4v8.6H90v3.8h-5.1V26h5.6v3.9H80.4z"/>
	<path d="M100.3,29.9V0.4h4.5V14l4.5-13.6h4.7L109,14.9l5.3,15h-4.8l-4.8-13.8v13.8H100.3z"/>
	<path d="M116.5,29.9V0.4h9.9v3.9H121v8.6h5.1v3.8H121V26h5.6v3.9H116.5z"/>
	<path d="M130.2,29.9V0.4h9.9v3.9h-5.4v8.6h5.1v3.8h-5.1V26h5.6v3.9H130.2z"/>
	<path d="M143.9,29.9V0.4h6.8c2.3,0,3.9,0.7,4.7,2.1c0.8,1.4,1.3,3.5,1.3,6.2v0.6c0,2.9-0.4,5.2-1.3,6.7c-0.8,1.5-2.4,2.3-4.6,2.3
		h-2.4v11.7H143.9z M148.4,14.5h1.5c0.9,0,1.6-0.4,1.9-1.1c0.3-0.7,0.4-2.1,0.4-4.2V8.7c0-1.7-0.2-3-0.5-3.7
		c-0.3-0.8-0.9-1.1-1.8-1.1h-1.6V14.5z"/>
	<path d="M159.8,29.9V0.4h9.9v3.9h-5.4v8.6h5.1v3.8h-5.1V26h5.6v3.9H159.8z"/>
	<path d="M179.4,16l-1.4-0.1v14h-4.5V0.4h7.4c1.5,0,2.7,0.3,3.5,0.9c0.8,0.6,1.3,1.5,1.5,2.6c0.2,1.1,0.4,2.6,0.4,4.4
		c0,1.8-0.2,3.2-0.6,4.1c-0.4,0.9-1.1,1.6-2.1,1.9c1,0.2,1.7,0.9,2.1,2.1c0.4,1.2,0.6,3.7,0.6,7.5c0,3.8,0.1,5.8,0.2,6.1H182
		c-0.1-0.2-0.2-3.8-0.2-10.6c0-1.3-0.2-2.2-0.5-2.6C181,16.3,180.4,16,179.4,16z M178,12.5h1.8c0.6,0,1-0.1,1.3-0.4
		c0.3-0.3,0.5-0.7,0.6-1.3c0.1-0.6,0.2-1.6,0.2-2.9V7.7c0-1.6-0.1-2.6-0.4-3.1c-0.3-0.5-0.9-0.7-1.9-0.7H178V12.5z"/>
</g>
<g>
	<polygon points="17,49.8 0,49.8 14.1,34.8 31.1,34.8 	"/>
	<polygon points="48.1,49.8 31.1,49.8 45.2,34.8 62.2,34.8 	"/>
	<polygon points="79.2,49.8 62.2,49.8 76.3,34.8 93.3,34.8 	"/>
	<polygon points="110.3,49.8 93.3,49.8 107.4,34.8 124.4,34.8 	"/>
	<polygon points="141.4,49.8 124.4,49.8 138.5,34.8 155.5,34.8 	"/>
	<polygon points="172.5,49.8 155.5,49.8 169.6,34.8 186.6,34.8 	"/>
</g>
</svg>
